# xmcd CD database file generated by OrangeCD 5.2
#
# Track frame offsets:
#	150
#	16454
#	34703
#	51504
#	66823
#	89650
#	129197
#	191280
#	220007
#	240771
#	267121
#	291928
#
# Disc length: 4279 seconds
#
# Revision: 0
# Processed by: cddbd v1.5.1PL0 Copyright (c) Steve Scherf et al.
# Submitted via: OrangeCD 5.2
#
DISCID=a310b50c
DTITLE=Clapton, Eric - Crossroads Festival 6/6/2004
DYEAR=2004
DGENRE=
TTITLE0=Me and the Devil Blues
TTITLE1=They're Red Hot
TTITLE2=Milkcow Calf Blues
TTITLE3=If I Had Possession Over Judgement
TTITLE4=Kind Hearted Woman
TTITLE5=I Shot the Sheriff
TTITLE6=Have You Ever Loved A Woman
TTITLE7=Badge
TTITLE8=Wonderful Tonight
TTITLE9=Layla
TTITLE10=Cocaine
TTITLE11=Cause We Ended As Lovers
EXTD=
EXTT0=
EXTT1=
EXTT2=
EXTT3=
EXTT4=
EXTT5=
EXTT6=
EXTT7=
EXTT8=
EXTT9=
EXTT10=
EXTT11=
PLAYORDER=
